<svg width="320" height="320" viewBox="0 0 320 320" fill="none" xmlns="http://www.w3.org/2000/svg">
  <circle cx="160" cy="160" r="152" fill="white" stroke="#E2E8F0" stroke-width="2"/>
  <rect x="72" y="72" width="176" height="176" rx="88" fill="#E2E8F0"/>
  <path d="M160 248C204.183 248 240 212.183 240 168C240 123.817 204.183 88 160 88C115.817 88 80 123.817 80 168C80 212.183 115.817 248 160 248Z" fill="#94A3B8"/>
  <path d="M160 208C186.51 208 208 186.51 208 160C208 133.49 186.51 112 160 112C133.49 112 112 133.49 112 160C112 186.51 133.49 208 160 208Z" fill="#475569"/>
  <path d="M209.6 232C202.4 217.6 182.4 200 160 200C137.6 200 117.6 217.6 110.4 232C123.3 243.4 140.8 250.7 160 250.7C179.2 250.7 196.7 243.4 209.6 232Z" fill="#334155"/>
</svg>
